<mxfile host="app.diagrams.net" modified="2024-03-13T18:42:07.509Z" agent="Mozilla/5.0 (Windows NT 10.0; Win64; x64) AppleWebKit/537.36 (KHTML, like Gecko) Chrome/122.0.0.0 Safari/537.36 Edg/122.0.0.0" etag="mso9TwC38eHK7XQmTxw0" version="24.0.4" type="device">
  <diagram name="Страница — 1" id="J4cWz2XL7vqtSTi2bnI6">
    <mxGraphModel dx="1042" dy="577" grid="1" gridSize="10" guides="1" tooltips="1" connect="1" arrows="1" fold="1" page="1" pageScale="1" pageWidth="827" pageHeight="1169" math="0" shadow="0">
      <root>
        <mxCell id="0" />
        <mxCell id="1" parent="0" />
        <mxCell id="8uJd290ljV_phInDk9Ym-1" value="" style="edgeStyle=orthogonalEdgeStyle;rounded=0;orthogonalLoop=1;jettySize=auto;html=1;" parent="1" source="CVfh6qN30NfIl68zEqBo-1" target="CVfh6qN30NfIl68zEqBo-2" edge="1">
          <mxGeometry relative="1" as="geometry" />
        </mxCell>
        <mxCell id="CVfh6qN30NfIl68zEqBo-1" value="Начало" style="rounded=1;whiteSpace=wrap;html=1;" parent="1" vertex="1">
          <mxGeometry x="40" y="40" width="120" height="60" as="geometry" />
        </mxCell>
        <mxCell id="8uJd290ljV_phInDk9Ym-2" value="" style="edgeStyle=orthogonalEdgeStyle;rounded=0;orthogonalLoop=1;jettySize=auto;html=1;" parent="1" source="CVfh6qN30NfIl68zEqBo-2" target="CVfh6qN30NfIl68zEqBo-3" edge="1">
          <mxGeometry relative="1" as="geometry" />
        </mxCell>
        <mxCell id="CVfh6qN30NfIl68zEqBo-2" value="Ввод длины массива1 (m) пользователем" style="shape=parallelogram;perimeter=parallelogramPerimeter;whiteSpace=wrap;html=1;fixedSize=1;" parent="1" vertex="1">
          <mxGeometry x="270" y="40" width="120" height="60" as="geometry" />
        </mxCell>
        <mxCell id="8uJd290ljV_phInDk9Ym-3" value="" style="edgeStyle=orthogonalEdgeStyle;rounded=0;orthogonalLoop=1;jettySize=auto;html=1;" parent="1" source="CVfh6qN30NfIl68zEqBo-3" target="CVfh6qN30NfIl68zEqBo-4" edge="1">
          <mxGeometry relative="1" as="geometry" />
        </mxCell>
        <mxCell id="CVfh6qN30NfIl68zEqBo-3" value="Объявление массива1&lt;div&gt;(&lt;span style=&quot;background-color: initial;&quot;&gt;stringArray(m))&lt;/span&gt;&lt;/div&gt;" style="shape=parallelogram;perimeter=parallelogramPerimeter;whiteSpace=wrap;html=1;fixedSize=1;" parent="1" vertex="1">
          <mxGeometry x="470" y="40" width="120" height="60" as="geometry" />
        </mxCell>
        <mxCell id="CVfh6qN30NfIl68zEqBo-45" style="edgeStyle=orthogonalEdgeStyle;rounded=0;orthogonalLoop=1;jettySize=auto;html=1;entryX=0.5;entryY=0;entryDx=0;entryDy=0;" parent="1" source="CVfh6qN30NfIl68zEqBo-4" target="CVfh6qN30NfIl68zEqBo-9" edge="1">
          <mxGeometry relative="1" as="geometry">
            <mxPoint x="710" y="160" as="targetPoint" />
            <Array as="points">
              <mxPoint x="730" y="160" />
              <mxPoint x="123" y="160" />
            </Array>
          </mxGeometry>
        </mxCell>
        <mxCell id="CVfh6qN30NfIl68zEqBo-4" value="Ввод элементов массива&lt;div&gt;(&lt;span style=&quot;background-color: initial;&quot;&gt;stringArray(i))&lt;/span&gt;&lt;/div&gt;" style="shape=parallelogram;perimeter=parallelogramPerimeter;whiteSpace=wrap;html=1;fixedSize=1;" parent="1" vertex="1">
          <mxGeometry x="670" y="40" width="120" height="60" as="geometry" />
        </mxCell>
        <mxCell id="CVfh6qN30NfIl68zEqBo-23" style="edgeStyle=orthogonalEdgeStyle;rounded=0;orthogonalLoop=1;jettySize=auto;html=1;entryX=1;entryY=0.5;entryDx=0;entryDy=0;" parent="1" source="CVfh6qN30NfIl68zEqBo-6" target="CVfh6qN30NfIl68zEqBo-17" edge="1">
          <mxGeometry relative="1" as="geometry">
            <mxPoint x="582" y="414" as="targetPoint" />
            <Array as="points">
              <mxPoint x="652" y="404" />
            </Array>
          </mxGeometry>
        </mxCell>
        <mxCell id="CVfh6qN30NfIl68zEqBo-6" value="n+=1" style="rounded=0;whiteSpace=wrap;html=1;" parent="1" vertex="1">
          <mxGeometry x="592" y="240" width="120" height="60" as="geometry" />
        </mxCell>
        <mxCell id="CVfh6qN30NfIl68zEqBo-24" value="" style="edgeStyle=orthogonalEdgeStyle;rounded=0;orthogonalLoop=1;jettySize=auto;html=1;" parent="1" source="CVfh6qN30NfIl68zEqBo-7" target="CVfh6qN30NfIl68zEqBo-12" edge="1">
          <mxGeometry relative="1" as="geometry" />
        </mxCell>
        <mxCell id="CVfh6qN30NfIl68zEqBo-42" value="" style="edgeStyle=orthogonalEdgeStyle;rounded=0;orthogonalLoop=1;jettySize=auto;html=1;entryX=0.573;entryY=-0.04;entryDx=0;entryDy=0;entryPerimeter=0;exitX=0.5;exitY=0;exitDx=0;exitDy=0;" parent="1" source="CVfh6qN30NfIl68zEqBo-7" target="CVfh6qN30NfIl68zEqBo-28" edge="1">
          <mxGeometry relative="1" as="geometry">
            <mxPoint x="301" y="229" as="sourcePoint" />
            <mxPoint x="760" y="470" as="targetPoint" />
            <Array as="points">
              <mxPoint x="290" y="229" />
              <mxPoint x="290" y="179" />
              <mxPoint x="800" y="179" />
              <mxPoint x="800" y="470" />
              <mxPoint x="99" y="470" />
            </Array>
          </mxGeometry>
        </mxCell>
        <mxCell id="CVfh6qN30NfIl68zEqBo-7" value="i &amp;lt;= m" style="rhombus;whiteSpace=wrap;html=1;" parent="1" vertex="1">
          <mxGeometry x="250" y="230" width="80" height="80" as="geometry" />
        </mxCell>
        <mxCell id="CVfh6qN30NfIl68zEqBo-25" value="" style="edgeStyle=orthogonalEdgeStyle;rounded=0;orthogonalLoop=1;jettySize=auto;html=1;" parent="1" source="CVfh6qN30NfIl68zEqBo-9" target="CVfh6qN30NfIl68zEqBo-7" edge="1">
          <mxGeometry relative="1" as="geometry" />
        </mxCell>
        <mxCell id="CVfh6qN30NfIl68zEqBo-9" value="Определение кол-ва элементов (n) длиной не более трех знаков" style="rounded=0;whiteSpace=wrap;html=1;" parent="1" vertex="1">
          <mxGeometry x="63" y="240" width="120" height="60" as="geometry" />
        </mxCell>
        <mxCell id="CVfh6qN30NfIl68zEqBo-13" value="" style="edgeStyle=orthogonalEdgeStyle;rounded=0;orthogonalLoop=1;jettySize=auto;html=1;" parent="1" source="CVfh6qN30NfIl68zEqBo-12" target="CVfh6qN30NfIl68zEqBo-6" edge="1">
          <mxGeometry relative="1" as="geometry" />
        </mxCell>
        <mxCell id="CVfh6qN30NfIl68zEqBo-21" value="" style="edgeStyle=orthogonalEdgeStyle;rounded=0;orthogonalLoop=1;jettySize=auto;html=1;" parent="1" source="CVfh6qN30NfIl68zEqBo-12" target="CVfh6qN30NfIl68zEqBo-17" edge="1">
          <mxGeometry relative="1" as="geometry" />
        </mxCell>
        <mxCell id="CVfh6qN30NfIl68zEqBo-12" value="stringArray[i].Length &amp;lt;=3" style="rhombus;whiteSpace=wrap;html=1;" parent="1" vertex="1">
          <mxGeometry x="372" y="200" width="165" height="140" as="geometry" />
        </mxCell>
        <mxCell id="CVfh6qN30NfIl68zEqBo-14" value="Да" style="text;html=1;align=center;verticalAlign=middle;whiteSpace=wrap;rounded=0;" parent="1" vertex="1">
          <mxGeometry x="526" y="244" width="60" height="30" as="geometry" />
        </mxCell>
        <mxCell id="CVfh6qN30NfIl68zEqBo-22" style="edgeStyle=orthogonalEdgeStyle;rounded=0;orthogonalLoop=1;jettySize=auto;html=1;entryX=0.5;entryY=1;entryDx=0;entryDy=0;" parent="1" source="CVfh6qN30NfIl68zEqBo-17" target="CVfh6qN30NfIl68zEqBo-7" edge="1">
          <mxGeometry relative="1" as="geometry">
            <mxPoint x="292" y="324" as="targetPoint" />
          </mxGeometry>
        </mxCell>
        <mxCell id="CVfh6qN30NfIl68zEqBo-17" value="i+=1" style="rounded=0;whiteSpace=wrap;html=1;" parent="1" vertex="1">
          <mxGeometry x="395" y="374" width="120" height="60" as="geometry" />
        </mxCell>
        <mxCell id="CVfh6qN30NfIl68zEqBo-37" value="" style="edgeStyle=orthogonalEdgeStyle;rounded=0;orthogonalLoop=1;jettySize=auto;html=1;" parent="1" source="CVfh6qN30NfIl68zEqBo-26" target="CVfh6qN30NfIl68zEqBo-29" edge="1">
          <mxGeometry relative="1" as="geometry" />
        </mxCell>
        <mxCell id="CVfh6qN30NfIl68zEqBo-26" value="i &amp;lt;= n" style="rhombus;whiteSpace=wrap;html=1;" parent="1" vertex="1">
          <mxGeometry x="190" y="604" width="80" height="80" as="geometry" />
        </mxCell>
        <mxCell id="8uJd290ljV_phInDk9Ym-7" value="" style="edgeStyle=orthogonalEdgeStyle;rounded=0;orthogonalLoop=1;jettySize=auto;html=1;" parent="1" source="CVfh6qN30NfIl68zEqBo-28" target="CVfh6qN30NfIl68zEqBo-26" edge="1">
          <mxGeometry relative="1" as="geometry" />
        </mxCell>
        <mxCell id="CVfh6qN30NfIl68zEqBo-28" value="Ввод элементов массива2&lt;div&gt;(&lt;span style=&quot;background-color: initial;&quot;&gt;rez(j))&lt;/span&gt;&lt;/div&gt;" style="shape=parallelogram;perimeter=parallelogramPerimeter;whiteSpace=wrap;html=1;fixedSize=1;" parent="1" vertex="1">
          <mxGeometry x="30" y="614" width="120" height="60" as="geometry" />
        </mxCell>
        <mxCell id="CVfh6qN30NfIl68zEqBo-38" value="" style="edgeStyle=orthogonalEdgeStyle;rounded=0;orthogonalLoop=1;jettySize=auto;html=1;" parent="1" source="CVfh6qN30NfIl68zEqBo-29" target="CVfh6qN30NfIl68zEqBo-30" edge="1">
          <mxGeometry relative="1" as="geometry" />
        </mxCell>
        <mxCell id="CVfh6qN30NfIl68zEqBo-41" style="edgeStyle=orthogonalEdgeStyle;rounded=0;orthogonalLoop=1;jettySize=auto;html=1;" parent="1" source="CVfh6qN30NfIl68zEqBo-29" edge="1">
          <mxGeometry relative="1" as="geometry">
            <mxPoint x="415.5" y="742" as="targetPoint" />
          </mxGeometry>
        </mxCell>
        <mxCell id="CVfh6qN30NfIl68zEqBo-29" value="stringArray[i].Length &amp;lt;=3" style="rhombus;whiteSpace=wrap;html=1;" parent="1" vertex="1">
          <mxGeometry x="333" y="530" width="165" height="159" as="geometry" />
        </mxCell>
        <mxCell id="CVfh6qN30NfIl68zEqBo-35" style="edgeStyle=orthogonalEdgeStyle;rounded=0;orthogonalLoop=1;jettySize=auto;html=1;entryX=0.5;entryY=0;entryDx=0;entryDy=0;" parent="1" target="CVfh6qN30NfIl68zEqBo-32" edge="1">
          <mxGeometry relative="1" as="geometry">
            <mxPoint x="130" y="812" as="targetPoint" />
            <mxPoint x="230" y="602" as="sourcePoint" />
            <Array as="points">
              <mxPoint x="230" y="512" />
              <mxPoint x="750" y="512" />
              <mxPoint x="750" y="812" />
              <mxPoint x="132" y="812" />
            </Array>
          </mxGeometry>
        </mxCell>
        <mxCell id="CVfh6qN30NfIl68zEqBo-39" style="edgeStyle=orthogonalEdgeStyle;rounded=0;orthogonalLoop=1;jettySize=auto;html=1;entryX=1;entryY=0.5;entryDx=0;entryDy=0;" parent="1" target="CVfh6qN30NfIl68zEqBo-31" edge="1">
          <mxGeometry relative="1" as="geometry">
            <mxPoint x="630" y="762" as="targetPoint" />
            <mxPoint x="638" y="674" as="sourcePoint" />
            <Array as="points">
              <mxPoint x="638" y="739" />
            </Array>
          </mxGeometry>
        </mxCell>
        <mxCell id="CVfh6qN30NfIl68zEqBo-30" value="rez(j) = stringArray(i)&lt;div&gt;j+=1&lt;/div&gt;" style="rounded=0;whiteSpace=wrap;html=1;" parent="1" vertex="1">
          <mxGeometry x="556" y="614" width="144" height="60" as="geometry" />
        </mxCell>
        <mxCell id="CVfh6qN30NfIl68zEqBo-36" style="edgeStyle=orthogonalEdgeStyle;rounded=0;orthogonalLoop=1;jettySize=auto;html=1;" parent="1" source="CVfh6qN30NfIl68zEqBo-31" edge="1">
          <mxGeometry relative="1" as="geometry">
            <mxPoint x="230" y="682" as="targetPoint" />
          </mxGeometry>
        </mxCell>
        <mxCell id="CVfh6qN30NfIl68zEqBo-31" value="i+=1" style="rounded=0;whiteSpace=wrap;html=1;" parent="1" vertex="1">
          <mxGeometry x="253" y="709" width="120" height="60" as="geometry" />
        </mxCell>
        <mxCell id="8uJd290ljV_phInDk9Ym-12" value="" style="edgeStyle=orthogonalEdgeStyle;rounded=0;orthogonalLoop=1;jettySize=auto;html=1;" parent="1" source="CVfh6qN30NfIl68zEqBo-32" target="CVfh6qN30NfIl68zEqBo-33" edge="1">
          <mxGeometry relative="1" as="geometry" />
        </mxCell>
        <mxCell id="CVfh6qN30NfIl68zEqBo-32" value="Объявление массива2 rez(n)" style="rounded=0;whiteSpace=wrap;html=1;" parent="1" vertex="1">
          <mxGeometry x="60" y="840" width="144" height="60" as="geometry" />
        </mxCell>
        <mxCell id="8uJd290ljV_phInDk9Ym-13" style="edgeStyle=orthogonalEdgeStyle;rounded=0;orthogonalLoop=1;jettySize=auto;html=1;entryX=0;entryY=0.5;entryDx=0;entryDy=0;" parent="1" source="CVfh6qN30NfIl68zEqBo-33" target="CVfh6qN30NfIl68zEqBo-34" edge="1">
          <mxGeometry relative="1" as="geometry" />
        </mxCell>
        <mxCell id="CVfh6qN30NfIl68zEqBo-33" value="Вывод массива2" style="shape=document;whiteSpace=wrap;html=1;boundedLbl=1;" parent="1" vertex="1">
          <mxGeometry x="320" y="830" width="120" height="80" as="geometry" />
        </mxCell>
        <mxCell id="CVfh6qN30NfIl68zEqBo-34" value="Конец" style="rounded=1;whiteSpace=wrap;html=1;" parent="1" vertex="1">
          <mxGeometry x="590" y="840" width="120" height="60" as="geometry" />
        </mxCell>
        <mxCell id="8uJd290ljV_phInDk9Ym-4" value="Нет" style="text;html=1;align=center;verticalAlign=middle;whiteSpace=wrap;rounded=0;" parent="1" vertex="1">
          <mxGeometry x="459" y="339" width="60" height="30" as="geometry" />
        </mxCell>
        <mxCell id="8uJd290ljV_phInDk9Ym-5" value="Да" style="text;html=1;align=center;verticalAlign=middle;whiteSpace=wrap;rounded=0;" parent="1" vertex="1">
          <mxGeometry x="317" y="244" width="60" height="30" as="geometry" />
        </mxCell>
        <mxCell id="8uJd290ljV_phInDk9Ym-6" value="Нет" style="text;html=1;align=center;verticalAlign=middle;whiteSpace=wrap;rounded=0;" parent="1" vertex="1">
          <mxGeometry x="273" y="190" width="60" height="30" as="geometry" />
        </mxCell>
        <mxCell id="8uJd290ljV_phInDk9Ym-8" value="Да" style="text;html=1;align=center;verticalAlign=middle;whiteSpace=wrap;rounded=0;" parent="1" vertex="1">
          <mxGeometry x="496" y="574" width="60" height="30" as="geometry" />
        </mxCell>
        <mxCell id="8uJd290ljV_phInDk9Ym-9" value="Да" style="text;html=1;align=center;verticalAlign=middle;whiteSpace=wrap;rounded=0;" parent="1" vertex="1">
          <mxGeometry x="240" y="604" width="60" height="30" as="geometry" />
        </mxCell>
        <mxCell id="8uJd290ljV_phInDk9Ym-10" value="Нет" style="text;html=1;align=center;verticalAlign=middle;whiteSpace=wrap;rounded=0;" parent="1" vertex="1">
          <mxGeometry x="414" y="689" width="60" height="30" as="geometry" />
        </mxCell>
        <mxCell id="8uJd290ljV_phInDk9Ym-11" value="Нет" style="text;html=1;align=center;verticalAlign=middle;whiteSpace=wrap;rounded=0;" parent="1" vertex="1">
          <mxGeometry x="220" y="540" width="60" height="30" as="geometry" />
        </mxCell>
      </root>
    </mxGraphModel>
  </diagram>
</mxfile>
